# This file uses centimeters as units for non-parametric coordinates.

mtllib closed 2.mtl
g default
v 4.459685 -1.974855 -0.430120
v 4.029564 -1.974855 -0.608281
v 3.599444 -1.974855 -0.430120
v 3.421283 -1.974855 0.000000
v 3.599444 -1.974855 0.430120
v 4.029564 -1.974855 0.608281
v 4.459685 -1.974855 0.430120
v 4.637846 -1.974855 0.000000
v 4.086464 0.513613 -0.056900
v 4.029564 0.513613 -0.080469
v 3.972665 0.513613 -0.056900
v 3.949096 0.513613 0.000000
v 3.972665 0.513613 0.056900
v 4.029564 0.513613 0.080469
v 4.086464 0.513613 0.056900
v 4.110033 0.513613 0.000000
v 4.086464 0.554472 -0.056900
v 4.029564 0.554472 -0.080469
v 4.029564 0.554472 0.000000
v 3.972665 0.554472 -0.056900
v 3.949096 0.554472 0.000000
v 3.972665 0.554472 0.056900
v 4.029564 0.554472 0.080469
v 4.086464 0.554472 0.056900
v 4.110033 0.554472 0.000000
v 4.459685 -2.138818 -0.430120
v 4.029564 -2.138818 -0.608281
v 4.029564 -2.138818 0.000000
v 3.599444 -2.138818 -0.430120
v 3.421283 -2.138818 0.000000
v 3.599444 -2.138818 0.430120
v 4.029564 -2.138818 0.608281
v 4.459685 -2.138818 0.430120
v 4.637846 -2.138818 0.000000
v 4.525832 -2.045511 -0.496267
v 4.029564 -2.045511 -0.701828
v 4.525832 -2.138819 -0.496267
v 4.029564 -2.138819 -0.701828
v 3.533297 -2.045511 -0.496267
v 3.533297 -2.138819 -0.496267
v 3.327737 -2.045511 0.000000
v 3.327737 -2.138819 0.000000
v 3.533297 -2.045511 0.496267
v 3.533297 -2.138819 0.496267
v 4.029564 -2.045511 0.701828
v 4.029564 -2.138819 0.701828
v 4.525832 -2.045511 0.496267
v 4.525832 -2.138819 0.496267
v 4.731393 -2.045511 0.000000
v 4.731393 -2.138819 0.000000
vt 0.040013 0.285641
vt 0.114879 0.285641
vt 0.114879 0.498082
vt 0.104975 0.498082
vt 0.189744 0.285641
vt 0.124783 0.498082
vt 0.114879 0.501570
vt 0.104975 0.501570
vt 0.124783 0.501570
vt 0.040013 0.285641
vt 0.114879 0.285641
vt 0.114879 0.498082
vt 0.104975 0.498082
vt 0.189744 0.285641
vt 0.124783 0.498082
vt 0.114879 0.501570
vt 0.104975 0.501570
vt 0.124783 0.501570
vt 0.029384 0.323021
vt 0.029384 0.409400
vt 0.021418 0.409400
vt 0.021418 0.323021
vt 0.029384 0.236643
vt 0.021418 0.236643
vt 0.029384 0.323021
vt 0.029384 0.409400
vt 0.021418 0.409400
vt 0.021418 0.323021
vt 0.029384 0.236643
vt 0.021418 0.236643
vt 0.028813 0.152614
vt 0.059823 0.077749
vt 0.134689 0.152614
vt 0.012531 0.152614
vt 0.048310 0.066235
vt 0.134689 0.046738
vt 0.059823 0.227480
vt 0.048310 0.238993
vt 0.134689 0.030456
vt 0.209554 0.077749
vt 0.134689 0.258490
vt 0.134689 0.274772
vt 0.221068 0.066235
vt 0.240564 0.152614
vt 0.209554 0.227480
vt 0.221068 0.238993
vt 0.256847 0.152614
vt 0.034806 0.057692
vt 0.024902 0.061794
vt 0.024902 0.047788
vt 0.014999 0.057692
vt 0.038909 0.047788
vt 0.010896 0.047788
vt 0.034806 0.037884
vt 0.014999 0.037884
vt 0.024902 0.033782
vt 0.240565 0.152614
vt 0.209554 0.077749
vt 0.221068 0.066235
vt 0.256847 0.152614
vt 0.134689 0.046738
vt 0.134689 0.030456
vt 0.209554 0.227480
vt 0.221068 0.238993
vt 0.059823 0.077749
vt 0.048310 0.066235
vt 0.134689 0.258490
vt 0.134689 0.274772
vt 0.028813 0.152614
vt 0.012531 0.152614
vt 0.059823 0.227480
vt 0.048310 0.238993
vt 0.039999 0.285879
vt 0.114864 0.285868
vt 0.114898 0.498309
vt 0.104994 0.498310
vt 0.189730 0.285856
vt 0.124802 0.498307
vt 0.114898 0.501797
vt 0.104994 0.501799
vt 0.124802 0.501795
vt 0.040013 0.285641
vt 0.114879 0.285641
vt 0.114879 0.498082
vt 0.104975 0.498082
vt 0.189744 0.285641
vt 0.124783 0.498082
vt 0.114879 0.501570
vt 0.104975 0.501570
vt 0.124783 0.501570
vt 0.021418 0.323021
vt 0.021418 0.236643
vt 0.029384 0.236643
vt 0.029384 0.323021
vt 0.021418 0.409400
vt 0.029384 0.409400
vt 0.029384 0.323021
vt 0.029384 0.409400
vt 0.021418 0.409400
vt 0.021418 0.323021
vt 0.029384 0.236643
vt 0.021418 0.236643
vn 0.691718 0.207488 -0.691719
vn -0.000000 0.207488 -0.978238
vn -0.000000 0.207488 -0.978238
vn 0.691718 0.207488 -0.691719
vn -0.691719 0.207488 -0.691718
vn -0.691718 0.207488 -0.691719
vn -0.978238 0.207488 -0.000000
vn -0.978238 0.207488 -0.000000
vn -0.691719 0.207488 0.691718
vn -0.691718 0.207488 0.691718
vn -0.000000 0.207488 0.978238
vn -0.000000 0.207488 0.978238
vn 0.691718 0.207488 0.691719
vn 0.691718 0.207488 0.691719
vn 0.978238 0.207488 0.000000
vn 0.978238 0.207488 0.000000
vn 0.000000 -1.000000 0.000000
vn 0.000000 -1.000000 -0.000000
vn 0.000000 -1.000000 -0.000000
vn 0.000000 -1.000000 0.000000
vn 0.000000 -1.000000 -0.000000
vn 0.000000 -1.000000 -0.000000
vn 0.000000 -1.000000 0.000000
vn 0.000000 -1.000000 0.000000
vn 0.000000 -1.000000 -0.000000
vn 0.000000 1.000000 0.000002
vn 0.000000 1.000000 0.000000
vn 0.000000 1.000000 0.000000
vn 0.000000 1.000000 -0.000001
vn 0.000000 1.000000 -0.000001
vn 0.000000 1.000000 0.000000
vn 0.000000 1.000000 0.000000
vn 0.000000 1.000000 -0.000001
vn 0.000000 1.000000 0.000001
vn 0.382685 0.000000 -0.923879
vn 0.382685 0.000000 -0.923879
vn 0.382685 0.000000 -0.923879
vn 0.382685 0.000000 -0.923879
vn -0.382685 0.000000 -0.923879
vn -0.382685 0.000000 -0.923879
vn -0.382685 0.000000 -0.923879
vn -0.382685 0.000000 -0.923879
vn -0.923878 0.000000 -0.382686
vn -0.923878 0.000000 -0.382686
vn -0.923878 0.000000 -0.382686
vn -0.923878 0.000000 -0.382686
vn -0.923878 0.000000 0.382686
vn -0.923878 0.000000 0.382686
vn -0.923878 0.000000 0.382686
vn -0.923878 0.000000 0.382686
vn -0.382684 0.000000 0.923879
vn -0.382684 0.000000 0.923879
vn -0.382684 0.000000 0.923879
vn -0.382684 0.000000 0.923879
vn 0.382684 0.000000 0.923879
vn 0.382684 0.000000 0.923879
vn 0.382684 0.000000 0.923879
vn 0.382684 0.000000 0.923879
vn 0.923877 0.000000 0.382689
vn 0.923877 0.000000 0.382689
vn 0.923877 0.000000 0.382689
vn 0.923877 0.000000 0.382689
vn 0.923877 0.000000 -0.382689
vn 0.923877 0.000000 -0.382689
vn 0.923877 0.000000 -0.382689
vn 0.923877 0.000000 -0.382689
vn 0.382683 0.000000 -0.923880
vn 0.382683 0.000000 -0.923880
vn 0.382683 0.000000 -0.923880
vn 0.382683 0.000000 -0.923880
vn -0.382683 0.000000 -0.923880
vn -0.382683 0.000000 -0.923880
vn -0.382683 0.000000 -0.923880
vn -0.382683 0.000000 -0.923880
vn -0.923880 0.000000 -0.382683
vn -0.923880 0.000000 -0.382683
vn -0.923880 0.000000 -0.382683
vn -0.923880 0.000000 -0.382683
vn -0.923880 0.000000 0.382683
vn -0.923880 0.000000 0.382683
vn -0.923880 0.000000 0.382683
vn -0.923880 0.000000 0.382683
vn -0.382683 0.000000 0.923880
vn -0.382683 0.000000 0.923880
vn -0.382683 0.000000 0.923880
vn -0.382683 0.000000 0.923880
vn 0.382683 0.000000 0.923880
vn 0.382683 0.000000 0.923880
vn 0.382683 0.000000 0.923880
vn 0.382683 0.000000 0.923880
vn 0.923879 -0.000000 0.382683
vn 0.923880 -0.000000 0.382683
vn 0.923879 -0.000000 0.382683
vn 0.923880 -0.000000 0.382683
vn 0.923879 0.000000 -0.382684
vn 0.923879 0.000000 -0.382683
vn 0.923879 0.000000 -0.382684
vn 0.923879 0.000000 -0.382683
vn 0.242214 0.774204 -0.584757
vn 0.242214 0.774204 -0.584757
vn 0.242214 0.774204 -0.584757
vn 0.242214 0.774204 -0.584757
vn -0.000005 -1.000000 0.000012
vn -0.000005 -1.000000 0.000012
vn -0.000005 -1.000000 0.000012
vn -0.000005 -1.000000 0.000012
vn -0.242214 0.774204 -0.584757
vn -0.242214 0.774204 -0.584757
vn -0.242214 0.774204 -0.584757
vn -0.242214 0.774204 -0.584757
vn 0.000005 -1.000000 0.000012
vn 0.000005 -1.000000 0.000012
vn 0.000005 -1.000000 0.000012
vn 0.000005 -1.000000 0.000012
vn -0.584757 0.774204 -0.242214
vn -0.584757 0.774204 -0.242214
vn -0.584757 0.774204 -0.242214
vn -0.584757 0.774204 -0.242214
vn 0.000013 -1.000000 0.000005
vn 0.000013 -1.000000 0.000005
vn 0.000013 -1.000000 0.000005
vn 0.000013 -1.000000 0.000005
vn -0.584757 0.774204 0.242214
vn -0.584757 0.774204 0.242214
vn -0.584757 0.774204 0.242214
vn -0.584757 0.774204 0.242214
vn 0.000013 -1.000000 -0.000005
vn 0.000013 -1.000000 -0.000005
vn 0.000013 -1.000000 -0.000005
vn 0.000013 -1.000000 -0.000005
vn -0.242214 0.774204 0.584757
vn -0.242214 0.774204 0.584757
vn -0.242214 0.774204 0.584757
vn -0.242214 0.774204 0.584757
vn 0.000005 -1.000000 -0.000012
vn 0.000005 -1.000000 -0.000012
vn 0.000005 -1.000000 -0.000012
vn 0.000005 -1.000000 -0.000012
vn 0.242214 0.774204 0.584757
vn 0.242214 0.774204 0.584757
vn 0.242214 0.774204 0.584757
vn 0.242214 0.774204 0.584757
vn -0.000005 -1.000000 -0.000013
vn -0.000005 -1.000000 -0.000013
vn -0.000005 -1.000000 -0.000013
vn -0.000005 -1.000000 -0.000013
vn 0.584757 0.774204 0.242214
vn 0.584757 0.774204 0.242214
vn 0.584757 0.774204 0.242214
vn 0.584757 0.774204 0.242214
vn -0.000013 -1.000000 -0.000005
vn -0.000013 -1.000000 -0.000005
vn -0.000013 -1.000000 -0.000005
vn -0.000013 -1.000000 -0.000005
vn 0.584757 0.774204 -0.242215
vn 0.584757 0.774204 -0.242215
vn 0.584757 0.774204 -0.242215
vn 0.584757 0.774204 -0.242215
vn -0.000013 -1.000000 0.000005
vn -0.000013 -1.000000 0.000005
vn -0.000013 -1.000000 0.000005
vn -0.000013 -1.000000 0.000005
s 1
g pCylinder1
usemtl initialShadingGroup
f 1/73/1 2/74/2 10/75/3 9/76/4
f 2/74/2 3/77/5 11/78/6 10/75/3
f 3/1/5 4/2/7 12/3/8 11/4/6
f 4/2/7 5/5/9 13/6/10 12/3/8
f 5/82/9 6/83/11 14/84/12 13/85/10
f 6/83/11 7/86/13 15/87/14 14/84/12
f 7/10/13 8/11/15 16/12/16 15/13/14
f 8/11/15 1/14/1 9/15/4 16/12/16
s 2
f 27/31/17 26/32/18 28/33/19
f 29/37/20 27/31/17 28/33/19
f 30/41/21 29/37/20 28/33/19
f 31/45/22 30/41/21 28/33/19
f 32/44/23 31/45/22 28/33/19
f 33/40/24 32/44/23 28/33/19
f 34/36/25 33/40/24 28/33/19
f 26/32/18 34/36/25 28/33/19
s 3
f 17/48/26 18/49/27 19/50/28
f 18/49/27 20/51/29 19/50/28
f 20/51/29 21/53/30 19/50/28
f 21/53/30 22/55/31 19/50/28
f 22/55/31 23/56/32 19/50/28
f 23/56/32 24/54/33 19/50/28
f 24/54/33 25/52/34 19/50/28
f 25/52/34 17/48/26 19/50/28
s off
f 9/76/35 10/75/36 18/79/37 17/80/38
f 10/75/39 11/78/40 20/81/41 18/79/42
f 11/4/43 12/3/44 21/7/45 20/8/46
f 12/3/47 13/6/48 22/9/49 21/7/50
f 13/85/51 14/84/52 23/88/53 22/89/54
f 14/84/55 15/87/56 24/90/57 23/88/58
f 15/13/59 16/12/60 25/16/61 24/17/62
f 16/12/63 9/15/64 17/18/65 25/16/66
f 36/91/67 35/92/68 37/93/69 38/94/70
f 39/95/71 36/91/72 38/94/73 40/96/74
f 41/19/75 39/20/76 40/21/77 42/22/78
f 43/23/79 41/19/80 42/22/81 44/24/82
f 45/97/83 43/98/84 44/99/85 46/100/86
f 47/101/87 45/97/88 46/100/89 48/102/90
f 49/25/91 47/26/92 48/27/93 50/28/94
f 35/29/95 49/25/96 50/28/97 37/30/98
f 2/57/99 1/58/100 35/59/101 36/60/102
f 26/32/103 27/31/104 38/34/105 37/35/106
f 3/63/107 2/57/108 36/60/109 39/64/110
f 27/31/111 29/37/112 40/38/113 38/34/114
f 4/67/115 3/63/116 39/64/117 41/68/118
f 29/37/119 30/41/120 42/42/121 40/38/122
f 5/71/123 4/67/124 41/68/125 43/72/126
f 30/41/127 31/45/128 44/46/129 42/42/130
f 6/69/131 5/71/132 43/72/133 45/70/134
f 31/45/135 32/44/136 46/47/137 44/46/138
f 7/65/139 6/69/140 45/70/141 47/66/142
f 32/44/143 33/40/144 48/43/145 46/47/146
f 8/61/147 7/65/148 47/66/149 49/62/150
f 33/40/151 34/36/152 50/39/153 48/43/154
f 1/58/155 8/61/156 49/62/157 35/59/158
f 34/36/159 26/32/160 37/35/161 50/39/162
